{"title":"Priyanka Chopra - I Can't Make You Love Me [Music Video] 1080p [","uid":10086539,"size":118290065,"categoryP":"video","categoryS":"music_videos","magnet":"?xt=urn:btih:063eee82eb838b4b3ae9781a417fb1d8934a1f1e&amp;dn=Priyanka+Chopra+-+I+Can%27t+Make+You+Love+Me+%5BMusic+Video%5D+1080p+%5B&amp;tr=udp%3A%2F%2Ftracker.openbittorrent.com%3A80&amp;tr=udp%3A%2F%2Fopen.demonii.com%3A1337&amp;tr=udp%3A%2F%2Ftracker.coppersurfer.tk%3A6969&amp;tr=udp%3A%2F%2Fexodus.desync.com%3A6969","seeders":2,"leechers":1,"uploader":"Sbyky","files":1,"time":1399108483,"description":"\n\nGeneral\nComplete name                            : Priyanka Chopra - I Can't Make You Love Me [Music Video] 1080p [Sbyky].mp4\nFormat                                   : MPEG-4\nFormat profile                           : Base Media\nCodec ID                                 : isom\nFile size                                : 113 MiB\nDuration                                 : 3mn 51s\nOverall bit rate mode                    : Variable\nOverall bit rate                         : 4 087 Kbps\nEncoded date                             : UTC 2014-04-23 23:51:23\nTagged date                              : UTC 2014-04-23 23:51:23\n\nVideo\nID                                       : 1\nFormat                                   : AVC\nFormat/Info                              : Advanced Video Codec\nFormat profile                           : &lt;a class=&quot;__cf_email__&quot; href=&quot;/cdn-cgi/l/email-protection&quot; data-cfemail=&quot;c38baaa4ab838ff7edf3&quot;&gt;[email&amp;#160;protected]&lt;/a&gt;&lt;script cf-hash='f9e31' type=&quot;text/javascript&quot;&gt;\n/* &lt;![CDATA[ */!function(){try{var t=&quot;currentScript&quot;in document?document.currentScript:function(){for(var t=document.getElementsByTagName(&quot;script&quot;),e=t.length;e--;)if(t[e].getAttribute(&quot;cf-hash&quot;))return t[e]}();if(t&amp;&amp;t.previousSibling){var e,r,n,i,c=t.previousSibling,a=c.getAttribute(&quot;data-cfemail&quot;);if(a){for(e=&quot;&quot;,r=parseInt(a.substr(0,2),16),n=2;a.length-n;n+=2)i=parseInt(a.substr(n,2),16)^r,e+=String.fromCharCode(i);e=document.createTextNode(e),c.parentNode.replaceChild(e,c)}}}catch(u){}}();/* ]]&gt; */&lt;/script&gt;\nFormat settings, CABAC                   : Yes\nFormat settings, ReFrames                : 2 frames\nCodec ID                                 : avc1\nCodec ID/Info                            : Advanced Video Coding\nDuration                                 : 3mn 51s\nBit rate                                 : 3 958 Kbps\nWidth                                    : 1 920 pixels\nHeight                                   : 1 080 pixels\nDisplay aspect ratio                     : 16:9\nFrame rate mode                          : Variable\nFrame rate                               : 23.976 fps\nMinimum frame rate                       : 23.974 fps\nMaximum frame rate                       : 24.122 fps\nColor space                              : YUV\nChroma subsampling                       : 4:2:0\nBit depth                                : 8 bits\nScan type                                : Progressive\nBits/(Pixel*Frame)                       : 0.080\nStream size                              : 109 MiB (97%)\nEncoded date                             : UTC 2014-04-23 23:51:23\nTagged date                              : UTC 2014-04-23 23:51:23\n\nAudio\nID                                       : 2\nFormat                                   : AAC\nFormat/Info                              : Advanced Audio Codec\nFormat profile                           : LC\nCodec ID                                 : 40\nDuration                                 : 3mn 51s\nBit rate mode                            : Variable\nBit rate                                 : 126 Kbps\nChannel(s)                               : 2 channels\nChannel positions                        : Front: L R\nSampling rate                            : 44.1 KHz\nCompression mode                         : Lossy\nStream size                              : 3.47 MiB (3%)\nEncoded date                             : UTC 2014-04-23 23:50:44\nTagged date                              : UTC 2014-04-23 23:50:44\n\nShared By Sbyky\n","torrent":{"xt":"urn:btih:063eee82eb838b4b3ae9781a417fb1d8934a1f1e","amp;dn":"Priyanka+Chopra+-+I+Can%27t+Make+You+Love+Me+%5BMusic+Video%5D+1080p+%5B","amp;tr":["udp%3A%2F%2Ftracker.openbittorrent.com%3A80","udp%3A%2F%2Fopen.demonii.com%3A1337","udp%3A%2F%2Ftracker.coppersurfer.tk%3A6969","udp%3A%2F%2Fexodus.desync.com%3A6969"],"infoHash":"063eee82eb838b4b3ae9781a417fb1d8934a1f1e","infoHashBuffer":{"type":"Buffer","data":[6,62,238,130,235,131,139,75,58,233,120,26,65,127,177,216,147,74,31,30]},"announce":[],"urlList":[]}}